<svg width="64" height="80" viewBox="0 0 64 80" fill="none" xmlns="http://www.w3.org/2000/svg">
<path d="M16.7011 80C18.7556 80 20.2623 78.6539 20.2623 76.9593V3.0407C20.2623 1.34606 18.7578 0 16.7011 0C14.6937 0 13.1913 1.34606 13.1913 3.0407V76.9593C13.1913 78.6539 14.6937 80 16.7011 80ZM45.8924 71.3099C47.8998 71.3099 49.4043 69.9193 49.4043 68.2247V11.7753C49.4043 10.0807 47.8998 8.69009 45.8945 8.69009C43.8871 8.69009 42.3312 10.0807 42.3312 11.7753V68.2247C42.3312 69.9193 43.8871 71.3099 45.8924 71.3099ZM2.15467 64.27C4.16211 64.27 5.66448 62.922 5.66448 61.2293V18.7707C5.66448 17.078 4.15997 15.73 2.15467 15.73C0.0980144 15.73 -1.40649 17.078 -1.40649 18.7707V61.2293C-1.40649 62.922 0.0980144 64.27 2.15467 64.27ZM31.2967 59.5773C33.3042 59.5773 34.8579 58.2293 34.8579 56.5347V23.4653C34.8579 21.7706 33.3042 20.4246 31.2967 20.4246C29.2915 20.4246 27.7869 21.7706 27.7869 23.4653V56.5347C27.7869 58.2293 29.2915 59.5773 31.2967 59.5773ZM60.488 51.7957C62.4955 51.7957 64 50.4051 64 48.7105V31.2858C64 29.5912 62.4955 28.2006 60.4902 28.2006C60.0206 28.1946 59.5544 28.2703 59.1192 28.4232C58.6841 28.5762 58.2887 28.8032 57.9566 29.0909C57.6246 29.3786 57.3625 29.7211 57.186 30.0981C57.0095 30.4751 56.9221 30.879 56.929 31.2858V48.7105C56.9221 49.1173 57.0095 49.5212 57.186 49.8982C57.3625 50.2752 57.6246 50.6177 57.9566 50.9054C58.2887 51.1931 58.6841 51.4201 59.1192 51.573C59.5544 51.726 60.0185 51.8017 60.488 51.7957ZM-12.4388 48.3638C-10.4335 48.3638 -8.92903 47.0158 -8.92903 45.3231V34.6751C-8.92903 32.9804 -10.4335 31.6344 -12.4388 31.6344C-14.4955 31.6344 -16 32.9804 -16 34.6751V45.3212C-16 47.0159 -14.4955 48.3619 -12.4388 48.3619" fill="white"/>
</svg>
